<svg width="60" height="52" viewBox="0 0 60 52" fill="none" xmlns="http://www.w3.org/2000/svg">
<path d="M60 24.2413C60.0015 22.0442 59.4739 19.879 58.4616 17.9289C57.4494 15.9788 55.9823 14.3011 54.1846 13.0377C52.3868 11.7743 50.3111 10.9624 48.1332 10.6706C45.9552 10.3788 43.739 10.6157 41.672 11.3613C39.605 12.1069 37.748 13.3393 36.258 14.9541C34.7679 16.569 33.6888 18.5189 33.1118 20.6389C32.5348 22.7589 32.4769 24.9866 32.9429 27.1338C33.409 29.2809 34.3854 31.2842 35.7895 32.9743V48.4484C35.7882 49.0033 35.9332 49.5487 36.2098 50.0297C36.4865 50.5107 36.885 50.9103 37.3653 51.1883C37.8455 51.4663 38.3906 51.6128 38.9455 51.6131C39.5005 51.6134 40.0457 51.4675 40.5263 51.1901L46.3158 47.8748L52.1184 51.1901C52.5987 51.4643 53.1425 51.6075 53.6955 51.6055C54.2485 51.6036 54.7913 51.4564 55.2696 51.1788C55.7479 50.9012 56.1449 50.5029 56.4208 50.0237C56.6968 49.5446 56.8421 49.0013 56.8421 48.4484V32.9743C58.8853 30.5229 60.0029 27.4322 60 24.2413ZM46.3158 16.8739C47.7731 16.8739 49.1977 17.306 50.4095 18.1155C51.6212 18.9251 52.5656 20.0757 53.1233 21.4219C53.681 22.7681 53.8269 24.2495 53.5426 25.6786C53.2583 27.1077 52.5565 28.4205 51.526 29.4508C50.4956 30.4812 49.1826 31.1828 47.7533 31.4671C46.324 31.7514 44.8424 31.6055 43.496 31.0479C42.1496 30.4902 40.9988 29.5459 40.1892 28.3344C39.3795 27.1228 38.9474 25.6984 38.9474 24.2413C38.9474 22.2873 39.7237 20.4134 41.1055 19.0318C42.4874 17.6501 44.3616 16.8739 46.3158 16.8739ZM47.8947 41.4967C47.4178 41.2245 46.8781 41.0813 46.3289 41.0813C45.7798 41.0813 45.2401 41.2245 44.7632 41.4967L42.1053 43.0071V37.2579C44.8421 38.1454 47.7895 38.1454 50.5263 37.2579V43.0071L47.8947 41.4967ZM31.5789 41.081C31.5789 41.9184 31.2462 42.7215 30.654 43.3137C30.0618 43.9058 29.2586 44.2385 28.4211 44.2385H5.26316C3.86728 44.2385 2.52858 43.684 1.54154 42.6971C0.55451 41.7102 0 40.3717 0 38.976V5.29659C0 3.90091 0.55451 2.5624 1.54154 1.5755C2.52858 0.588611 3.86728 0.0341797 5.26316 0.0341797H51.5789C52.9748 0.0341797 54.3135 0.588611 55.3006 1.5755C56.2876 2.5624 56.8421 3.90091 56.8421 5.29659C56.8432 6.04225 56.5804 6.76425 56.1001 7.3347C55.6198 7.90515 54.9531 8.28724 54.2181 8.4133C53.483 8.53936 52.7271 8.40125 52.0842 8.02344C51.4412 7.64562 50.9527 7.05248 50.7053 6.34908H6.31579V37.9236H28.4211C29.2586 37.9236 30.0618 38.2562 30.654 38.8484C31.2462 39.4405 31.5789 40.2436 31.5789 41.081ZM28.4211 27.3987C28.4211 28.2361 28.0883 29.0392 27.4961 29.6314C26.9039 30.2235 26.1007 30.5562 25.2632 30.5562H14.7368C13.8993 30.5562 13.0961 30.2235 12.5039 29.6314C11.9117 29.0392 11.5789 28.2361 11.5789 27.3987C11.5789 26.5613 11.9117 25.7582 12.5039 25.1661C13.0961 24.5739 13.8993 24.2413 14.7368 24.2413H25.2632C26.1007 24.2413 26.9039 24.5739 27.4961 25.1661C28.0883 25.7582 28.4211 26.5613 28.4211 27.3987ZM28.4211 16.8739C28.4211 17.7113 28.0883 18.5144 27.4961 19.1066C26.9039 19.6987 26.1007 20.0314 25.2632 20.0314H14.7368C13.8993 20.0314 13.0961 19.6987 12.5039 19.1066C11.9117 18.5144 11.5789 17.7113 11.5789 16.8739C11.5789 16.0365 11.9117 15.2334 12.5039 14.6412C13.0961 14.0491 13.8993 13.7165 14.7368 13.7165H25.2632C26.1007 13.7165 26.9039 14.0491 27.4961 14.6412C28.0883 15.2334 28.4211 16.0365 28.4211 16.8739Z" fill="#F0F0F0"/>
</svg>
