<svg width="23" height="28" viewBox="0 0 23 28" fill="none" xmlns="http://www.w3.org/2000/svg">
<path fill-rule="evenodd" clip-rule="evenodd" d="M3.39995 0.5C2.68387 0.5 1.99711 0.784463 1.49076 1.29081C0.984415 1.79716 0.699951 2.48392 0.699951 3.2V24.8C0.699951 25.5161 0.984415 26.2028 1.49076 26.7092C1.99711 27.2155 2.68387 27.5 3.39995 27.5H19.6C20.316 27.5 21.0028 27.2155 21.5091 26.7092C22.0155 26.2028 22.3 25.5161 22.3 24.8V6.4589C22.2998 5.74287 22.0152 5.05623 21.5089 4.55L18.25 1.2911C17.7437 0.784717 17.0571 0.500153 16.3411 0.5H3.39995ZM3.39995 3.2H16.3411L19.6 6.4589V24.8H3.39995V3.2ZM17.2213 12.3706C17.3502 12.246 17.453 12.0971 17.5238 11.9323C17.5945 11.7676 17.6318 11.5905 17.6333 11.4112C17.6349 11.232 17.6007 11.0542 17.5329 10.8883C17.465 10.7224 17.3647 10.5717 17.238 10.4449C17.1112 10.3182 16.9605 10.2179 16.7946 10.15C16.6287 10.0822 16.4509 10.048 16.2717 10.0496C16.0924 10.0511 15.9153 10.0884 15.7506 10.1591C15.5859 10.2299 15.4369 10.3327 15.3124 10.4616L9.58565 16.1884L7.6754 14.2795C7.42079 14.0335 7.07978 13.8975 6.72581 13.9005C6.37184 13.9036 6.03325 14.0456 5.78295 14.2959C5.53265 14.5462 5.39067 14.8848 5.38759 15.2388C5.38452 15.5927 5.52059 15.9337 5.7665 16.1884L8.534 18.9572C8.67191 19.0952 8.83564 19.2046 9.01586 19.2793C9.19607 19.354 9.38923 19.3924 9.5843 19.3924C9.77937 19.3924 9.97253 19.354 10.1527 19.2793C10.333 19.2046 10.4967 19.0952 10.6346 18.9572L17.2213 12.3706Z" fill="white"/>
</svg>
