<svg width="61" height="61" viewBox="0 0 61 61" fill="none" xmlns="http://www.w3.org/2000/svg">
<path fill-rule="evenodd" clip-rule="evenodd" d="M26.4543 2.4976C27.4672 1.48611 28.8223 0.890937 30.2523 0.829497C31.6824 0.768057 33.0836 1.24481 34.1794 2.16571L34.5457 2.50046L39.9818 7.93377H47.6669C49.11 7.93404 50.4998 8.4796 51.5578 9.46115C52.6157 10.4427 53.2637 11.7878 53.372 13.2269L53.3891 13.6561V21.3411L58.8253 26.7773C59.8376 27.7902 60.4333 29.1459 60.4947 30.5767C60.5562 32.0074 60.0789 33.4092 59.1572 34.5052L58.8224 34.8686L53.3863 40.3047V47.9898C53.3867 49.4334 52.8415 50.8239 51.8599 51.8825C50.8782 52.9411 49.5328 53.5895 48.0932 53.6977L47.6669 53.712H39.9847L34.5485 59.1482C33.5356 60.1605 32.1799 60.7562 30.7491 60.8176C29.3184 60.8791 27.9166 60.4018 26.8206 59.4801L26.4572 59.1482L21.021 53.712H13.3331C11.8895 53.7125 10.499 53.1673 9.44042 52.1856C8.38185 51.204 7.73344 49.8585 7.62517 48.4189L7.61086 47.9898V40.3047L2.17469 34.8686C1.1624 33.8556 0.566721 32.4999 0.505274 31.0692C0.443828 29.6384 0.921082 28.2366 1.8428 27.1406L2.17469 26.7773L7.61086 21.3411V13.6561C7.61112 12.2129 8.15668 10.8231 9.13824 9.76515C10.1198 8.70718 11.4649 8.05918 12.904 7.95094L13.3331 7.93377H21.0182L26.4543 2.4976ZM39.3095 22.1908L27.1668 34.3335L22.1083 29.275C21.5714 28.7385 20.8434 28.4373 20.0844 28.4376C19.3255 28.4378 18.5977 28.7396 18.0612 29.2765C17.5247 29.8133 17.2235 30.5413 17.2237 31.3003C17.224 32.0593 17.5257 32.7871 18.0626 33.3235L24.9408 40.2017C25.2331 40.4941 25.5801 40.7261 25.962 40.8844C26.344 41.0426 26.7533 41.1241 27.1668 41.1241C27.5802 41.1241 27.9896 41.0426 28.3715 40.8844C28.7535 40.7261 29.1005 40.4941 29.3927 40.2017L43.3551 26.2365C43.8763 25.6969 44.1647 24.9741 44.1582 24.224C44.1516 23.4738 43.8507 22.7562 43.3203 22.2257C42.7898 21.6952 42.0722 21.3943 41.322 21.3878C40.5718 21.3813 39.8491 21.6697 39.3095 22.1908Z" fill="#F0F0F0"/>
</svg>
