<svg width="60" height="78" viewBox="0 0 60 78" fill="none" xmlns="http://www.w3.org/2000/svg">
<path d="M30 0C46.5529 0 60 17.4 60 38.8235C60 60.2823 46.5529 77.6471 30 77.6471C13.4471 77.6471 0 60.2823 0 38.8235C0 17.4 13.4471 0 30 0ZM30 7.05882C17.3294 7.05882 7.05882 21.2824 7.05882 38.8235C7.05882 56.3647 17.3294 70.5882 30 70.5882C42.6706 70.5882 52.9412 56.3647 52.9412 38.8235C52.9412 21.2824 42.6706 7.05882 30 7.05882ZM16.9059 32.7529L28.3412 21.2824L32.0824 25.0235L20.6471 36.4941L16.9059 32.7529ZM18.3529 48.0353L38.3294 28.0588L42.0706 31.7647L22.0941 51.7765L18.3529 48.0353Z" fill="#F0F0F0"/>
</svg>
