<svg width="24" height="24" viewBox="0 0 24 24" fill="none" xmlns="http://www.w3.org/2000/svg">
<path d="M21.7778 6.4629H18.8956C19.308 5.83997 19.5373 5.10606 19.5556 4.35037C19.572 3.77468 19.4749 3.20158 19.2703 2.66627C19.0657 2.13096 18.7578 1.64474 18.3656 1.23749C17.9734 0.830239 17.5052 0.51055 16.9896 0.298063C16.4741 0.0855758 15.9222 -0.015223 15.3678 0.00185882C14.8557 0.0132066 14.3514 0.134368 13.8866 0.357734C13.4218 0.5811 13.0064 0.901848 12.6667 1.29984C12.4161 1.59667 12.1929 1.91728 12 2.25745C11.8071 1.91728 11.5839 1.59667 11.3333 1.29984C10.9936 0.901848 10.5782 0.5811 10.1134 0.357734C9.64858 0.134368 9.1443 0.0132066 8.63222 0.00185882C8.07781 -0.015223 7.5259 0.0855758 7.01037 0.298063C6.49485 0.51055 6.0266 0.830239 5.6344 1.23749C5.24221 1.64474 4.93433 2.13096 4.7297 2.66627C4.52507 3.20158 4.42799 3.77468 4.44444 4.35037C4.46273 5.10606 4.69202 5.83997 5.10444 6.4629H2.22222C1.63285 6.4629 1.06762 6.70601 0.650874 7.13875C0.234126 7.57149 4.63237e-08 8.15842 4.63237e-08 8.77041V12.4624C-0.000104511 12.9944 0.176793 13.51 0.500753 13.9221C0.824713 14.3342 1.27584 14.6174 1.77778 14.7238V21.6925C1.77778 22.3045 2.0119 22.8914 2.42865 23.3241C2.8454 23.7569 3.41063 24 4 24H20C20.5894 24 21.1546 23.7569 21.5713 23.3241C21.9881 22.8914 22.2222 22.3045 22.2222 21.6925V14.7238C22.7242 14.6174 23.1753 14.3342 23.4992 13.9221C23.8232 13.51 24.0001 12.9944 24 12.4624V8.77041C24 8.15842 23.7659 7.57149 23.3491 7.13875C22.9324 6.70601 22.3671 6.4629 21.7778 6.4629ZM21.3333 12.0009H13.3333V9.23191H21.3333V12.0009ZM14.6667 3.13662C14.765 3.02326 14.8849 2.93226 15.0187 2.86932C15.1526 2.80638 15.2975 2.77286 15.4444 2.77088H15.4833C15.6714 2.77032 15.8576 2.80904 16.0309 2.88474C16.2042 2.96043 16.3611 3.07155 16.4923 3.21148C16.6234 3.35141 16.7261 3.5173 16.7942 3.69927C16.8624 3.88125 16.8946 4.0756 16.8889 4.27076C16.887 4.42332 16.8547 4.57382 16.7941 4.71281C16.7335 4.85179 16.6458 4.97626 16.5367 5.07839C15.77 5.78449 14.5089 6.14677 13.4667 6.31983C13.6333 5.24222 13.9822 3.93271 14.6667 3.13662ZM7.52222 3.19777C7.78597 2.92683 8.14123 2.77364 8.51222 2.77088H8.55556C8.70248 2.77286 8.84742 2.80638 8.98127 2.86932C9.11511 2.93226 9.23498 3.02326 9.33333 3.13662C10.0133 3.93271 10.3622 5.24107 10.5278 6.32214C9.49444 6.14792 8.22222 5.78564 7.46333 5.07839C7.35417 4.97626 7.26653 4.85179 7.20591 4.71281C7.1453 4.57382 7.11302 4.42332 7.11111 4.27076C7.1062 4.07233 7.1401 3.87494 7.21076 3.69051C7.28142 3.50608 7.38738 3.33845 7.52222 3.19777ZM2.66667 9.23191H10.6667V12.0009H2.66667V9.23191ZM4.44444 14.7699H10.6667V21.231H4.44444V14.7699ZM13.3333 21.231V14.7699H19.5556V21.231H13.3333Z" fill="#88A57E"/>
</svg>
