<svg width="61" height="61" viewBox="0 0 61 61" fill="none" xmlns="http://www.w3.org/2000/svg">
<path d="M33.5 0.82373V6.82373C45.5 8.32373 54.5 18.2237 54.5 30.5237C54.5 40.1237 48.8 48.5237 40.4 52.4237L33.5 45.8237V60.8237H48.5L44.9 57.2237C54.2 52.1237 60.5 42.2237 60.5 30.8237C60.5 15.2237 48.5 2.32373 33.5 0.82373ZM27.5 0.82373C21.8 1.42373 16.1 3.82373 11.6 7.42373L15.8 11.6237C19.1 9.22373 23.3 7.42373 27.5 6.82373V0.82373ZM7.1 11.9237C3.5 16.4237 1.1 22.1237 0.5 27.8237H6.5C7.1 23.6237 8.9 19.4237 11.3 16.1237L7.1 11.9237ZM0.5 33.8237C1.1 39.5237 3.5 45.2237 7.1 49.7237L11.3 45.5237C8.9 42.2237 7.1 38.0237 6.5 33.8237H0.5ZM15.8 50.0237L11.6 54.2237C16.1 57.8237 21.8 60.2237 27.5 60.8237V54.8237C23.3 54.2237 19.1 52.4237 15.8 50.0237ZM30.5 18.8237V24.8237H39.5V27.8237H36.5C33.2 27.8237 30.5 30.5237 30.5 33.8237V42.8237H45.5V36.8237H36.5V33.8237H39.5C42.8 33.8237 45.5 31.1237 45.5 27.8237V24.8237C45.5 21.5237 42.8 18.8237 39.5 18.8237H30.5ZM15.5 18.8237V24.8237H18.5V42.8237H24.5V18.8237H15.5Z" fill="#F0F0F0"/>
</svg>
