<svg width="14" height="18" viewBox="0 0 14 18" fill="none" xmlns="http://www.w3.org/2000/svg">
<path d="M3.72727 4.2H9.18182M3.72727 4.2V6.2H9.18182V4.2M3.72727 4.2V3C3.72727 1.8 5.36364 1 7 1H13C13 1 9.18182 1.8 9.18182 3.4V4.2M1 7C1 6.78783 1.11493 6.58434 1.31952 6.43431C1.52411 6.28429 1.80158 6.2 2.09091 6.2H10.8182C11.1075 6.2 11.385 6.28429 11.5896 6.43431C11.7942 6.58434 11.9091 6.78783 11.9091 7V14.6C11.9091 14.6 11.9091 17 8.63636 17H4.27273C1 17 1 14.6 1 14.6V7Z" stroke="white" stroke-linecap="round" stroke-linejoin="round"/>
</svg>
